<svg id="レイヤー_1" data-name="レイヤー 1" xmlns="http://www.w3.org/2000/svg" viewBox="0 0 716 173.5"><defs><style>.cls-1{fill:#00469b;}.cls-1,.cls-3{opacity:0.5;}.cls-2{fill:#999;}.cls-3{fill:#009fc0;}</style></defs><path class="cls-1" d="M196.68,87.08a18.57,18.57,0,1,0-18.57,18.57A18.59,18.59,0,0,0,196.68,87.08Z"/><path class="cls-2" d="M178.11,117A29.91,29.91,0,1,1,208,87.08,29.94,29.94,0,0,1,178.11,117Zm0-54.14a24.24,24.24,0,1,0,24.24,24.23A24.26,24.26,0,0,0,178.11,62.85Z"/><path class="cls-1" d="M267.58,87.08A18.57,18.57,0,1,0,249,105.65,18.59,18.59,0,0,0,267.58,87.08Z"/><path class="cls-2" d="M249,117a29.91,29.91,0,1,1,29.91-29.91A29.94,29.94,0,0,1,249,117Zm0-54.14a24.24,24.24,0,1,0,24.24,24.23A24.26,24.26,0,0,0,249,62.85Z"/><path class="cls-3" d="M669.86,68.52a18.57,18.57,0,1,0,18.57,18.56A18.59,18.59,0,0,0,669.86,68.52Z"/><path class="cls-2" d="M669.86,117a29.91,29.91,0,1,1,29.91-29.91A29.94,29.94,0,0,1,669.86,117Zm0-54.14A24.24,24.24,0,1,0,694.1,87.08,24.26,24.26,0,0,0,669.86,62.85Z"/><path class="cls-2" d="M355.43,77.62a7.51,7.51,0,1,1,7.51-7.51h5.67a13.18,13.18,0,1,0-13.18,13.18,13.89,13.89,0,1,1-13.89,13.89h-5.67a19.56,19.56,0,1,0,19.56-19.56Z"/><path class="cls-2" d="M39.3,163.7,36.79,162a72.81,72.81,0,0,1-20.9-20.88l-1.65-2.51,28.34-16.36,1.5,2.09a40.63,40.63,0,0,0,9.48,9.48l2.1,1.5Zm-17-23.18A67.47,67.47,0,0,0,37.43,155.6l10.78-18.68A46.12,46.12,0,0,1,41,129.73Zm69.47,20.77V128.56l2.56-.25a41.11,41.11,0,0,0,13-3.48l2.34-1.06L126,152.12l-2.7,1.35a73.66,73.66,0,0,1-28.52,7.64Zm5.67-27.66V155.2a67.84,67.84,0,0,0,20.6-5.52L107.3,131A47,47,0,0,1,97.48,133.63ZM89,161.29l-3-.18a73,73,0,0,1-28.53-7.65l-2.69-1.35,16.37-28.34,2.34,1.07a40.43,40.43,0,0,0,13,3.47l2.56.25ZM62.7,149.68a67.14,67.14,0,0,0,20.61,5.53V133.64A46.68,46.68,0,0,1,73.49,131ZM128.49,151l-16.36-28.35,2.08-1.49a41.1,41.1,0,0,0,9.49-9.49l1.5-2.09,28.35,16.37-1.66,2.51A73.76,73.76,0,0,1,131,149.3Zm-8.92-26.79,10.79,18.68a67.63,67.63,0,0,0,15.08-15.08L126.76,117A47,47,0,0,1,119.57,124.17Zm-93.75-1-1.35-2.69A73.71,73.71,0,0,1,16.83,92l-.18-3H49.38l.26,2.56a41.09,41.09,0,0,0,3.47,13l1.06,2.34ZM22.74,94.63a68,68,0,0,0,5.52,20.61L47,104.45a45.81,45.81,0,0,1-2.63-9.82Zm26.64-8.5H16.65l.18-3A73,73,0,0,1,24.48,54.6l1.35-2.69L54.17,68.27,53.1,70.61a40.69,40.69,0,0,0-3.47,13ZM22.73,80.46H44.31a45.66,45.66,0,0,1,2.63-9.82L28.26,59.86A67.08,67.08,0,0,0,22.73,80.46ZM55.58,65.81,27.25,49.45l1.65-2.51A73,73,0,0,1,49.78,26.05l2.51-1.66L68.66,52.74l-2.09,1.49a40.71,40.71,0,0,0-9.49,9.49ZM35.35,47.58,54,58.37a46.12,46.12,0,0,1,7.19-7.19L50.43,32.49A67.26,67.26,0,0,0,35.35,47.58ZM125.2,65.81l-1.49-2.09a40.71,40.71,0,0,0-9.49-9.49l-2.09-1.49L128.49,24.4,131,26.05a73.06,73.06,0,0,1,20.89,20.89l1.66,2.51Zm-5.62-14.63a46.06,46.06,0,0,1,7.18,7.19l18.69-10.79A67.26,67.26,0,0,0,130.36,32.5Zm-48.46.14L54.75,23l2.69-1.34A73.72,73.72,0,0,1,86,14l3-.18V46.54l-2.56.25a41.09,41.09,0,0,0-13,3.47ZM62.7,25.41,73.49,44.1a47,47,0,0,1,9.82-2.63V19.89A68,68,0,0,0,62.7,25.41Zm47,25.91-2.34-1.07a41,41,0,0,0-13-3.47l-2.56-.25V13.8l3,.18a73,73,0,0,1,28.54,7.66L126,23ZM97.48,41.46a45.66,45.66,0,0,1,9.82,2.63l10.78-18.68a67.06,67.06,0,0,0-20.6-5.52Z"/><path class="cls-3" d="M535.36,68.52a18.57,18.57,0,1,0,18.57,18.56A18.59,18.59,0,0,0,535.36,68.52Z"/><path class="cls-3" d="M603.5,68.52a18.57,18.57,0,1,0,18.57,18.56A18.59,18.59,0,0,0,603.5,68.52Z"/><path class="cls-2" d="M287.3,69.6V60h-5.67v54.14h5.67V87.08a24.26,24.26,0,0,1,24.23-24.23V57.18A29.85,29.85,0,0,0,287.3,69.6Z"/><polygon class="cls-2" points="234.26 133.71 210.73 133.71 210.73 43.29 216.4 43.29 216.4 128.04 234.26 128.04 234.26 133.71"/><circle class="cls-1" cx="326.34" cy="50.15" r="2.11"/><path class="cls-2" d="M326.34,41a9.2,9.2,0,0,0,0,18.39h2.16a1.36,1.36,0,0,1,1.36,1.36h5.67V50.15A9.21,9.21,0,0,0,326.34,41Zm0,12.72a3.53,3.53,0,1,1,3.52-3.52A3.53,3.53,0,0,1,326.34,53.67Z"/><path class="cls-2" d="M579.26,122.13V104.57a29.9,29.9,0,1,0,0-35V27.06h-5.67v95.07h-8.33V60h-5.67v9.58a29.91,29.91,0,1,0,0,35v17.56H467.78V16.68h-5.67V127.8H663l-7.1,7.09,4,4,16.78-16.77ZM603.5,62.85a24.24,24.24,0,1,1-24.24,24.23A24.27,24.27,0,0,1,603.5,62.85Zm-68.14,48.47a24.24,24.24,0,1,1,24.23-24.24A24.26,24.26,0,0,1,535.36,111.32Z"/></svg>