<svg id="レイヤー_1" data-name="レイヤー 1" xmlns="http://www.w3.org/2000/svg" viewBox="0 0 72.9 78.44"><defs><style>.cls-1{fill:#999;}</style></defs><path class="cls-1" d="M24.93,88.2l-1.31-.87A38.07,38.07,0,0,1,12.69,76.4l-.87-1.31,14.83-8.56.79,1.09a21.09,21.09,0,0,0,5,5l1.1.78ZM16.06,76.07A35.2,35.2,0,0,0,24,84l5.64-9.77a23.94,23.94,0,0,1-3.76-3.77ZM52.41,86.94V69.81l1.34-.13a21.57,21.57,0,0,0,6.78-1.82l1.23-.55,8.56,14.83-1.41.7a38.43,38.43,0,0,1-14.92,4Zm3-14.48V83.75a35.37,35.37,0,0,0,10.78-2.89l-5.64-9.78A24.1,24.1,0,0,1,55.38,72.46ZM50.93,86.94l-1.57-.1a38.13,38.13,0,0,1-14.93-4L33,82.14l8.56-14.83,1.23.55a21.24,21.24,0,0,0,6.78,1.82l1.34.13ZM37.18,80.86A35.18,35.18,0,0,0,48,83.76V72.47a24.1,24.1,0,0,1-5.14-1.38Zm34.43.67L63,66.7l1.1-.78a21.47,21.47,0,0,0,5-5l.79-1.09,14.83,8.56-.87,1.32A38.41,38.41,0,0,1,72.92,80.66Zm-4.67-14,5.64,9.78a35.62,35.62,0,0,0,7.9-7.89L70.7,63.75A24.31,24.31,0,0,1,66.94,67.51ZM17.88,67l-.7-1.41a38.43,38.43,0,0,1-4-14.92l-.1-1.58H30.21l.13,1.34a21.85,21.85,0,0,0,1.82,6.78l.56,1.23ZM16.27,52.06a35.44,35.44,0,0,0,2.89,10.78l9.78-5.65a23.86,23.86,0,0,1-1.38-5.13Zm13.94-4.45H13.08l.1-1.57a38.13,38.13,0,0,1,4-14.93l.71-1.41,14.83,8.56-.56,1.23a21.17,21.17,0,0,0-1.82,6.78Zm-13.94-3H27.56a24.08,24.08,0,0,1,1.37-5.14l-9.77-5.64A34.88,34.88,0,0,0,16.27,44.64ZM33.46,37,18.63,28.42l.86-1.32A38.32,38.32,0,0,1,30.42,16.17l1.32-.87L40.3,30.13l-1.1.79a21.23,21.23,0,0,0-5,5ZM22.87,27.44l9.77,5.64a23.88,23.88,0,0,1,3.76-3.76l-5.64-9.78A35,35,0,0,0,22.87,27.44Zm47,9.54-.79-1.1a21.23,21.23,0,0,0-5-5L63,30.14l8.57-14.83,1.31.86A38.19,38.19,0,0,1,83.85,27.1l.87,1.31Zm-3-7.66a23.88,23.88,0,0,1,3.76,3.76l9.78-5.64a35,35,0,0,0-7.9-7.9Zm-25.36.07L33,14.56l1.41-.7a38.43,38.43,0,0,1,14.93-4l1.57-.1V26.89L49.59,27a21.57,21.57,0,0,0-6.78,1.82Zm-4.4-13.55,5.65,9.77A24.59,24.59,0,0,1,48,24.24V13A35.44,35.44,0,0,0,37.18,15.84ZM61.76,29.39l-1.23-.56A21.42,21.42,0,0,0,53.75,27l-1.34-.13V9.76L54,9.85a38.15,38.15,0,0,1,14.93,4l1.41.7Zm-6.38-5.16a24.1,24.1,0,0,1,5.14,1.38l5.64-9.77a35.18,35.18,0,0,0-10.78-2.9Z" transform="translate(-11.82 -9.76)"/></svg>